<svg width="256" height="256" viewBox="0 0 256 256" xmlns="http://www.w3.org/2000/svg" role="img" aria-label="Virtual Labs chatbot icon">
  <defs>
    <radialGradient id="glow" cx="50%" cy="45%" r="70%">
      <stop offset="0%" stop-color="#60a5fa" stop-opacity="0.95"/>
      <stop offset="50%" stop-color="#2563eb" stop-opacity="0.8"/>
      <stop offset="100%" stop-color="#1d3faa" stop-opacity="0.25"/>
    </radialGradient>
    <filter id="blur" x="-50%" y="-50%" width="200%" height="200%">
      <feGaussianBlur stdDeviation="12" result="blur"/>
      <feMerge>
        <feMergeNode in="blur"/>
        <feMergeNode in="SourceGraphic"/>
      </feMerge>
    </filter>
  </defs>
  <rect x="12" y="12" width="232" height="232" rx="116" fill="url(#glow)" opacity="0.35"/>
  <g filter="url(#blur)" stroke="#7dd3fc" stroke-width="10" fill="none" stroke-linecap="round" stroke-linejoin="round">
    <path d="M86 62h84v76a32 32 0 0 1-32 32h-20a32 32 0 0 1-32-32V62z" fill="none"/>
    <rect x="68" y="98" width="120" height="92" rx="28" fill="none"/>
    <circle cx="108" cy="136" r="10"/>
    <circle cx="148" cy="136" r="10"/>
    <path d="M112 172c10 14 32 14 42 0"/>
    <path d="M128 50l8-18h-16l8 18z"/>
    <path d="M128 32v-12"/>
    <circle cx="128" cy="198" r="16"/>
    <path d="M128 214v18"/>
    <path d="M68 144h-14v-26"/>
    <path d="M188 144h14v-26"/>
    <path d="M84 88h88"/>
    <circle cx="116" cy="72" r="6"/>
    <circle cx="140" cy="72" r="6"/>
    <circle cx="128" cy="52" r="6"/>
  </g>
</svg>
